{
  "accessors": [
    {
      "bufferView": 2,
      "componentType": 5126,
      "count": 23081,
      "max": [
        7.8082966804504395,
        27.240510940551758,
        11.321747779846191
      ],
      "min": [
        -7.7216510772705078,
        0.63603419065475464,
        -9.1189899444580078
      ],
      "type": "VEC3"
    },
    {
      "bufferView": 2,
      "byteOffset": 276972,
      "componentType": 5126,
      "count": 23081,
      "max": [
        0.9999774694442749,
        0.99998271465301514,
        0.99999749660491943
      ],
      "min": [
        -0.99993669986724854,
        -0.99992918968200684,
        -0.99996733665466309
      ],
      "type": "VEC3"
    },
    {
      "bufferView": 3,
      "componentType": 5126,
      "count": 23081,
      "max": [
        0.99961650371551514,
        0.99997031688690186,
        0.99991732835769653,
        1
      ],
      "min": [
        -0.99730098247528076,
        -0.98339211940765381,
        -0.99999487400054932,
        -1
      ],
      "type": "VEC4"
    },
    {
      "bufferView": 1,
      "componentType": 5126,
      "count": 23081,
      "max": [
        0.77235418558120728,
        0.9998784065246582
      ],
      "min": [
        0.00012165730731794611,
        0.00012165730731794611
      ],
      "type": "VEC2"
    },
    {
      "bufferView": 0,
      "componentType": 5125,
      "count": 137448,
      "max": [
        23080
      ],
      "min": [
        0
      ],
      "type": "SCALAR"
    },
    {
      "bufferView": 2,
      "byteOffset": 553944,
      "componentType": 5126,
      "count": 16270,
      "max": [
        5.1639223098754883,
        19.321016311645508,
        8.6791896820068359
      ],
      "min": [
        -5.1838054656982422,
        15.441571235656738,
        4.6651010513305664
      ],
      "type": "VEC3"
    },
    {
      "bufferView": 2,
      "byteOffset": 749184,
      "componentType": 5126,
      "count": 16270,
      "max": [
        1,
        1,
        1
      ],
      "min": [
        -1,
        -1,
        -1
      ],
      "type": "VEC3"
    },
    {
      "bufferView": 1,
      "byteOffset": 184648,
      "componentType": 5126,
      "count": 16270,
      "max": [
        0.94463223218917847,
        0.33827227354049683
      ],
      "min": [
        0.77259749174118042,
        0.00012165730731794611
      ],
      "type": "VEC2"
    },
    {
      "bufferView": 0,
      "byteOffset": 549792,
      "componentType": 5125,
      "count": 96768,
      "max": [
        16269
      ],
      "min": [
        0
      ],
      "type": "SCALAR"
    }
  ],
  "asset": {
    "extras": {
      "author": "Businessuse (https://sketchfab.com/Businessuse)",
      "license": "CC-BY-4.0 (http://creativecommons.org/licenses/by/4.0/)",
      "source": "https://sketchfab.com/3d-models/head-c80e5333288e4e5792b2ca916408630b",
      "title": "Head"
    },
    "generator": "Sketchfab-9.52.0",
    "version": "2.0"
  },
  "bufferViews": [
    {
      "buffer": 0,
      "byteLength": 936864,
      "byteOffset": 0,
      "name": "floatBufferViews",
      "target": 34963
    },
    {
      "buffer": 0,
      "byteLength": 314808,
      "byteOffset": 936864,
      "byteStride": 8,
      "name": "floatBufferViews",
      "target": 34962
    },
    {
      "buffer": 0,
      "byteLength": 944424,
      "byteOffset": 1251672,
      "byteStride": 12,
      "name": "floatBufferViews",
      "target": 34962
    },
    {
      "buffer": 0,
      "byteLength": 369296,
      "byteOffset": 2196096,
      "byteStride": 16,
      "name": "floatBufferViews",
      "target": 34962
    }
  ],
  "buffers": [
    {
      "byteLength": 2565392,
      "uri": "scene.bin"
    }
  ],
  "images": [
    {
      "uri": "textures/head_baseColor.png"
    },
    {
      "uri": "textures/head_metallicRoughness.png"
    },
    {
      "uri": "textures/head_normal.png"
    }
  ],
  "materials": [
    {
      "doubleSided": true,
      "emissiveFactor": [
        0,
        0,
        0
      ],
      "name": "head",
      "normalTexture": {
        "index": 2,
        "scale": 0.23837414892923675,
        "texCoord": 0
      },
      "pbrMetallicRoughness": {
        "baseColorFactor": [
          1,
          1,
          1,
          1
        ],
        "baseColorTexture": {
          "index": 0,
          "texCoord": 0
        },
        "metallicFactor": 1,
        "metallicRoughnessTexture": {
          "index": 1,
          "texCoord": 0
        },
        "roughnessFactor": 1
      }
    },
    {
      "doubleSided": true,
      "emissiveFactor": [
        0,
        0,
        0
      ],
      "name": "eye.001",
      "pbrMetallicRoughness": {
        "baseColorFactor": [
          0,
          0,
          0,
          1
        ],
        "metallicFactor": 0,
        "roughnessFactor": 0.0090251300307175875
      }
    }
  ],
  "meshes": [
    {
      "name": "Win Alenka.004_head_0",
      "primitives": [
        {
          "attributes": {
            "NORMAL": 1,
            "POSITION": 0,
            "TANGENT": 2,
            "TEXCOORD_0": 3
          },
          "indices": 4,
          "material": 0,
          "mode": 4
        }
      ]
    },
    {
      "name": "Win Alenka.004_eye.001_0",
      "primitives": [
        {
          "attributes": {
            "NORMAL": 6,
            "POSITION": 5,
            "TEXCOORD_0": 7
          },
          "indices": 8,
          "material": 1,
          "mode": 4
        }
      ]
    }
  ],
  "nodes": [
    {
      "children": [
        1
      ],
      "name": "RootNode (gltf orientation matrix)",
      "rotation": [
        -0.70710678118654746,
        -0,
        -0,
        0.70710678118654757
      ]
    },
    {
      "children": [
        2
      ],
      "name": "RootNode (model correction matrix)"
    },
    {
      "children": [
        3
      ],
      "matrix": [
        1,
        0,
        0,
        0,
        0,
        0,
        1,
        0,
        0,
        -1,
        0,
        0,
        0,
        0,
        0,
        1
      ],
      "name": "a93ac73d3a694dfd83aeff28cb34c6df.fbx"
    },
    {
      "children": [
        4
      ],
      "name": "RootNode"
    },
    {
      "children": [
        5,
        6
      ],
      "matrix": [
        100,
        0,
        0,
        0,
        0,
        99.999999999998664,
        1.6292067073209114e-05,
        0,
        0,
        -1.6292067073209114e-05,
        99.999999999998664,
        0,
        0,
        0,
        0,
        1
      ],
      "name": "Win Alenka.004"
    },
    {
      "mesh": 0,
      "name": "Win Alenka.004_head_0"
    },
    {
      "mesh": 1,
      "name": "Win Alenka.004_eye.001_0"
    }
  ],
  "samplers": [
    {
      "magFilter": 9729,
      "minFilter": 9987,
      "wrapS": 10497,
      "wrapT": 10497
    }
  ],
  "scene": 0,
  "scenes": [
    {
      "name": "OSG_Scene",
      "nodes": [
        0
      ]
    }
  ],
  "textures": [
    {
      "sampler": 0,
      "source": 0
    },
    {
      "sampler": 0,
      "source": 1
    },
    {
      "sampler": 0,
      "source": 2
    }
  ]
}

